<svg width="22" height="22" fill="none" xmlns="http://www.w3.org/2000/svg"><path d="M20.313 0H1.558A1.57 1.57 0 0 0 0 1.577v18.72c0 .87.698 1.578 1.558 1.578h18.755c.859 0 1.562-.708 1.562-1.577V1.578c0-.87-.703-1.578-1.563-1.578ZM6.61 18.75H3.37V8.31h3.247v10.44h-.005ZM4.991 6.885a1.88 1.88 0 0 1 0-3.76c1.034 0 1.88.845 1.88 1.88 0 1.04-.84 1.88-1.88 1.88ZM18.764 18.75h-3.242v-5.078c0-1.211-.025-2.769-1.685-2.769-1.69 0-1.948 1.319-1.948 2.681v5.166H8.647V8.31h3.11v1.426h.045c.434-.82 1.494-1.684 3.071-1.684 3.281 0 3.892 2.163 3.892 4.975v5.723Z" fill="#fff"/></svg>