<svg width="202" height="100" fill="none" xmlns="http://www.w3.org/2000/svg"><path d="M0 64.844h29.166c5.18 0 7.804 2.079 7.804 6.778v7.514c0 4.699-2.612 6.698-7.803 6.698H8.136V99.01H0V64.844Zm8.138 6.238v8.513h17.495c2.428 0 3.338-.402 3.338-2.608v-3.596c0-1.62-.91-2.309-3.338-2.309H8.138Zm49.044-6.238h7.838l19.613 34.145h-9.3l-4.086-7.365H50.092l-3.925 7.365h-8.322l19.337-34.145ZM67.76 85.133l-6.93-13.075-7.182 13.075h14.123-.011ZM91.067 71.61c0-4.699 2.613-6.778 7.793-6.778h30.294v6.25H99.24v21.61h21.742v-6.87h-10.336v-6.25h18.52V99H91.079V71.599l-.011.011Zm87.661-55.778-12.12-12.11L170.349 0l12.12 12.098-3.741 3.734Zm-.012 2.711-12.074 12.06 3.737 3.728 12.074-12.06-3.737-3.728Zm-18.532 18.493-12.123 12.109 3.737 3.727 12.123-12.108-3.737-3.728Zm37.103.014L185.2 49.112l3.736 3.729 12.086-12.064-3.735-3.729Zm-18.558 18.496L166.61 67.643l3.736 3.729 12.119-12.097-3.736-3.729Zm10.185-37.007-3.737 3.728 12.076 12.058 3.737-3.728-12.076-12.058Zm-37.123-.049-3.736 3.728 12.116 12.099 3.737-3.728-12.117-12.099Zm18.584 18.541-3.737 3.728 12.076 12.058 3.736-3.728-12.075-12.058Z" fill="#fff"/></svg>